<?xml version="1.0" encoding="UTF-8"?>
<svg id="_图层_1" data-name="图层 1" xmlns="http://www.w3.org/2000/svg" viewBox="0 0 155.33 152.91">
  <defs>
    <style>
      .cls-1 {
        fill: #fff;
      }
    </style>
  </defs>
  <g>
    <path class="cls-1" d="m77.69,8.18c.58-.96,1.04-1.81,1.59-2.61,3.28-4.76,9.16-6.73,14.52-4.89,5.36,1.85,8.55,6.8,8.26,12.69-.25,5.15-2.83,9.22-6.04,12.94-4.39,5.09-9.37,9.59-14.47,13.95-1.27,1.08-2.34,2.4-3.92,3.28-5.11-4.43-10.26-8.81-14.94-13.7-2.93-3.05-5.81-6.14-7.6-10.04-2.15-4.69-2.5-9.4.2-13.96,4.77-8.08,16.89-7.66,21.54.68.28.5.53,1.01.87,1.65Z"/>
    <circle class="cls-1" cx="36.28" cy="71.73" r="17.48"/>
    <path class="cls-1" d="m108.17,33.8c-6.34,1.34-12.05,3.36-17.22,6.79-5.17,3.43-9.44,7.77-13.28,12.99-3.83-5.28-8.1-9.62-13.28-13.04-5.15-3.41-10.8-5.46-17.21-6.66l-19.14-1.9c-7.67-1.41-14.92-3.67-21.08-8.7-.61-.5-1.05-1.24-2.02-1.46-.59,2.57-.31,5.08.23,7.55,1.28,5.79,4.95,9.78,9.96,12.5-.11.38-.11.51-.18.59-.32.33-.64.66-.99.96-7.02,6.12-11.44,13.74-12.96,22.93-1.61,9.75-1.24,19.49.75,29.15,5.77,27.92,26.87,51.78,58.39,56.72,2.17.34,4.36.83,6.68.67-.26-.94-.95-1.23-1.43-1.68-4.08-3.77-8.23-7.47-11.68-11.86-5.43-6.91-8.45-14.46-5.98-23.4.04-.13-.09-.31-.19-.63-2.85.79-5.79.93-8.76,1.41-.36,1.86-.39,3.64-.38,5.42.03,5.5,1.7,10.57,4.03,15.48-.42-.19-.86-.34-1.26-.57-14.55-8.29-24.07-20.66-29.46-36.37-.07-.21-.13-.45.17-.55,18.34,16.83,47.64,11.86,57.88-11.21,2.61,5.87,5.15,11.59,7.91,17.8,2.79-6.2,5.36-11.9,8.03-17.84,5.48,11.23,13.85,18.49,26.04,20.63,12.06,2.12,22.57-1.56,31.78-9.48.08.29.15.41.12.5-.1.39-.22.78-.35,1.16-2.88,8.43-7.26,16-13.2,22.63-4.9,5.47-10.48,10.12-17.17,13.29l-.06.05s.05-.05.05-.05c2.2-4.69,3.93-9.51,4.06-14.77.05-2.06.04-4.12-.53-6.25-2.97-.14-5.77-.77-8.59-1.2-.25.97.08,1.69.23,2.4,1.21,5.85-.08,11.25-2.9,16.37-2.81,5.08-6.84,9.16-10.99,13.11-1.86,1.77-3.73,3.52-5.88,5.54.8.06,1.14.14,1.46.1,7.68-.82,15.2-2.38,22.31-5.48,19.8-8.64,32.66-23.63,39.45-43.92,3.35-10.03,4.21-20.42,3.58-31-.02-.26-.03-.52-.05-.77h-55.15v9.51h45.59c-2.97,10.02-11.46,18-23.42,20.03-12.81,2.18-25.51-5.86-29.57-18.54-1.3-4.06-1.8-8.23-2.07-12.45-.18-2.81-.27-5.62-.4-8.44-.17-.06-.34-.12-.5-.18-3.93,7.44-7.86,14.89-11.88,22.49-4.01-7.63-7.93-15.06-11.84-22.49-.15.04-.31.08-.46.12-.15,2.96-.26,5.92-.46,8.87-.35,5.27-1.05,10.46-3.33,15.32-5.58,11.91-18.03,17.88-30.82,14.76-11.68-2.85-20.71-12.41-21.82-23.99-1.18-12.33,3.32-22.46,13.77-29.37,14.42-9.53,33.28-6.47,44.83,6.89,3.83,4.43,6.76,9.36,9.05,14.71.23.53.48,1.05.73,1.57.07.15.2.28.36.5.96-1.28,1.35-2.68,1.95-3.97,4.17-8.98,9.96-16.52,18.89-21.26,16.02-8.51,35.99-3.03,44.29,12.46.66,1.22,1.22,2.46,1.71,3.7h8.86c-1.89-6.5-5.28-12.3-10.54-17.32-.9-.86-1.83-1.69-2.86-2.65,3.77-2.12,6.85-4.68,8.7-8.47,1.82-3.72,2.64-7.58,1.79-11.79-1.08.34-1.58,1.19-2.29,1.74-6.94,5.41-14.99,7.8-23.57,8.8l-16.45,1.49Z"/>
  </g>
  <circle class="cls-1" cx="41.56" cy="64.74" r="5.3"/>
</svg>