<?xml version="1.0" encoding="utf-8"?>
<!-- Generator: Adobe Illustrator 27.6.1, SVG Export Plug-In . SVG Version: 6.00 Build 0)  -->
<svg version="1.1" id="_图层_1" xmlns="http://www.w3.org/2000/svg" xmlns:xlink="http://www.w3.org/1999/xlink" x="0px" y="0px"
	 viewBox="0 0 150 150" style="enable-background:new 0 0 150 150;" xml:space="preserve">
<style type="text/css">
	.st0{fill:#FF9999;}
	.st1{fill:#FFFFFF;}
</style>
<rect class="st0" width="150" height="150"/>
<g>
	<path class="st1" d="M75,21.4c0.5-0.8,0.8-1.4,1.2-2c2.6-3.7,7.2-5.3,11.4-3.8c4.2,1.5,6.7,5.3,6.5,10c-0.2,4-2.2,7.2-4.7,10.2
		c-3.4,4-7.4,7.5-11.4,10.9c-1,0.8-1.8,1.9-3.1,2.6c-4-3.5-8.1-6.9-11.7-10.7c-2.3-2.4-4.6-4.8-6-7.9c-1.7-3.7-2-7.4,0.2-11
		c3.7-6.3,13.3-6,16.9,0.5C74.6,20.5,74.8,20.9,75,21.4L75,21.4z"/>
	<circle class="st1" cx="42.5" cy="71.3" r="13.7"/>
	<path class="st1" d="M99,41.5c-5,1.1-9.5,2.6-13.5,5.3S78,52.9,75,57c-3-4.1-6.4-7.5-10.4-10.2c-4-2.7-8.5-4.3-13.5-5.2l-15-1.5
		c-6-1.1-11.7-2.9-16.5-6.8c-0.5-0.4-0.8-1-1.6-1.1c-0.5,2-0.2,4,0.2,5.9c1,4.5,3.9,7.7,7.8,9.8c-0.1,0.3-0.1,0.4-0.1,0.5
		c-0.3,0.3-0.5,0.5-0.8,0.8c-5.5,4.8-9,10.8-10.2,18c-1.3,7.7-1,15.3,0.6,22.9c4.5,21.9,21.1,40.6,45.8,44.5
		c1.7,0.3,3.4,0.7,5.2,0.5c-0.2-0.7-0.7-1-1.1-1.3c-3.2-3-6.5-5.9-9.2-9.3c-4.3-5.4-6.6-11.3-4.7-18.4c0-0.1-0.1-0.2-0.1-0.5
		c-2.2,0.6-4.5,0.7-6.9,1.1c-0.3,1.5-0.3,2.9-0.3,4.3c0,4.3,1.3,8.3,3.2,12.1c-0.3-0.1-0.7-0.3-1-0.4C35,116,27.5,106.3,23.3,94
		c-0.1-0.2-0.1-0.4,0.1-0.4c14.4,13.2,37.4,9.3,45.4-8.8c2,4.6,4,9.1,6.2,14c2.2-4.9,4.2-9.3,6.3-14c4.3,8.8,10.9,14.5,20.4,16.2
		c9.5,1.7,17.7-1.2,24.9-7.4c0.1,0.2,0.1,0.3,0.1,0.4c-0.1,0.3-0.2,0.6-0.3,0.9c-2.3,6.6-5.7,12.6-10.4,17.8
		c-3.8,4.3-8.2,7.9-13.5,10.4l0,0l0,0c1.7-3.7,3.1-7.5,3.2-11.6c0-1.6,0-3.2-0.4-4.9c-2.3-0.1-4.5-0.6-6.7-0.9
		c-0.2,0.8,0.1,1.3,0.2,1.9c0.9,4.6-0.1,8.8-2.3,12.8c-2.2,4-5.4,7.2-8.6,10.3c-1.5,1.4-2.9,2.8-4.6,4.3c0.6,0,0.9,0.1,1.1,0.1
		c6-0.6,11.9-1.9,17.5-4.3c15.5-6.8,25.6-18.5,31-34.5c2.6-7.9,3.3-16,2.8-24.3c0-0.2,0-0.4,0-0.6H92.5v7.5h35.8
		c-2.3,7.9-9,14.1-18.4,15.7c-10.1,1.7-20-4.6-23.2-14.5c-1-3.2-1.4-6.5-1.6-9.8c-0.1-2.2-0.2-4.4-0.3-6.6c-0.1,0-0.3-0.1-0.4-0.1
		C81.2,69.2,78.2,75.1,75,81c-3.1-6-6.2-11.8-9.3-17.6c-0.1,0-0.2,0.1-0.4,0.1c-0.1,2.3-0.2,4.6-0.4,7c-0.3,4.1-0.8,8.2-2.6,12
		c-4.4,9.3-14.1,14-24.2,11.6C29,91.8,22,84.3,21.1,75.2c-0.9-9.7,2.6-17.6,10.8-23c11.3-7.5,26.1-5.1,35.2,5.4
		c3,3.5,5.3,7.3,7.1,11.5c0.2,0.4,0.4,0.8,0.6,1.2c0.1,0.1,0.2,0.2,0.3,0.4c0.8-1,1.1-2.1,1.5-3.1c3.3-7,7.8-13,14.8-16.7
		c12.6-6.7,28.2-2.4,34.8,9.8c0.5,1,1,1.9,1.3,2.9h7c-1.5-5.1-4.1-9.7-8.3-13.6c-0.7-0.7-1.4-1.3-2.2-2.1c3-1.7,5.4-3.7,6.8-6.6
		c1.4-2.9,2.1-5.9,1.4-9.3c-0.8,0.3-1.2,0.9-1.8,1.4c-5.4,4.2-11.8,6.1-18.5,6.9L99,41.5L99,41.5z"/>
</g>
<circle class="st1" cx="38.9" cy="63.3" r="5.3"/>
</svg>
